HIERARCHY
ROOT hip
{
  OFFSET 0 0 0
  CHANNELS 6 Xposition Yposition Zposition Zrotation Yrotation Xrotation
  JOINT abdomen
  {
    OFFSET 0 20.6881 -0.73152
    CHANNELS 3 Zrotation Xrotation Yrotation
    JOINT chest
    {
      OFFSET 0 11.7043 -0.48768
      CHANNELS 3 Zrotation Xrotation Yrotation
      JOINT neck
      {
        OFFSET 0 22.1894 -2.19456
        CHANNELS 3 Zrotation Xrotation Yrotation
        JOINT head
        {
          OFFSET -0.24384 7.07133 1.2192
          CHANNELS 3 Zrotation Xrotation Yrotation
          JOINT leftEye
          {
            OFFSET 4.14528 8.04674 8.04672
            CHANNELS 3 Zrotation Xrotation Yrotation
            End Site
            {
              OFFSET 1 0 0
            }
          }
          JOINT rightEye
          {
            OFFSET -3.6576 8.04674 8.04672
            CHANNELS 3 Zrotation Xrotation Yrotation
            End Site
            {
              OFFSET 1 0 0
            }
          }
        }
      }
      JOINT rCollar
      {
        OFFSET -2.68224 19.2634 -4.8768
        CHANNELS 3 Zrotation Xrotation Yrotation
        JOINT rShldr
        {
          OFFSET -8.77824 -1.95073 1.46304
          CHANNELS 3 Zrotation Xrotation Yrotation
          JOINT rForeArm
          {
            OFFSET -28.1742 -1.7115 0.48768
            CHANNELS 3 Zrotation Xrotation Yrotation
            JOINT rHand
            {
              OFFSET -22.5879 0.773209 7.07136
              CHANNELS 3 Zrotation Xrotation Yrotation
              JOINT rThumb1
              {
                OFFSET -1.2192 -0.487915 3.41376
                CHANNELS 3 Zrotation Xrotation Yrotation
                JOINT rThumb2
                {
                  OFFSET -3.37035 -0.52449 3.41376
                  CHANNELS 3 Zrotation Xrotation Yrotation
                  End Site
                  {
                    OFFSET -1.78271 -1.18214 1.43049
                  }
                }
              }
              JOINT rIndex1
              {
                OFFSET -7.75947 0.938293 5.60832
                CHANNELS 3 Zrotation Xrotation Yrotation
                JOINT rIndex2
                {
                  OFFSET -2.54057 -0.884171 1.56538
                  CHANNELS 3 Zrotation Xrotation Yrotation
                  End Site
                  {
                    OFFSET -1.62519 -0.234802 1.16502
                  }
                }
              }
              JOINT rMid1
              {
                OFFSET -8.24714 1.18213 3.41376
                CHANNELS 3 Zrotation Xrotation Yrotation
                JOINT rMid2
                {
                  OFFSET -3.10165 -0.590103 1.0647
                  CHANNELS 3 Zrotation Xrotation Yrotation
                  End Site
                  {
                    OFFSET -2.48547 -0.328903 0.83742
                  }
                }
              }
              JOINT rRing1
              {
                OFFSET -8.82822 0.546677 1.51678
                CHANNELS 3 Zrotation Xrotation Yrotation
                JOINT rRing2
                {
                  OFFSET -2.60934 -0.819778 -0.0198488
                  CHANNELS 3 Zrotation Xrotation Yrotation
                  End Site
                  {
                    OFFSET -2.33842 -0.294052 0.168128
                  }
                }
              }
              JOINT rPinky1
              {
                OFFSET -8.27202 -0.0477905 -0.4584
                CHANNELS 3 Zrotation Xrotation Yrotation
                JOINT rPinky2
                {
                  OFFSET -1.82734 -0.647385 -0.700984
                  CHANNELS 3 Zrotation Xrotation Yrotation
                  End Site
                  {
                    OFFSET -1.69225 -0.51767 -0.607171
                  }
                }
              }
            }
          }
        }
      }
      JOINT lCollar
      {
        OFFSET 2.68224 19.2634 -4.8768
        CHANNELS 3 Zrotation Xrotation Yrotation
        JOINT lShldr
        {
          OFFSET 8.77824 -1.95073 1.46304
          CHANNELS 3 Zrotation Xrotation Yrotation
          JOINT lForeArm
          {
            OFFSET 28.1742 -1.7115 0.48768
            CHANNELS 3 Zrotation Xrotation Yrotation
            JOINT lHand
            {
              OFFSET 22.5879 0.773209 7.07136
              CHANNELS 3 Zrotation Xrotation Yrotation
              JOINT lThumb1
              {
                OFFSET 1.2192 -0.487915 3.41376
                CHANNELS 3 Zrotation Xrotation Yrotation
                JOINT lThumb2
                {
                  OFFSET 3.37035 -0.52449 3.41376
                  CHANNELS 3 Zrotation Xrotation Yrotation
                  End Site
                  {
                    OFFSET 1.78271 -1.18214 1.43049
                  }
                }
              }
              JOINT lIndex1
              {
                OFFSET 7.75947 0.938293 5.60832
                CHANNELS 3 Zrotation Xrotation Yrotation
                JOINT lIndex2
                {
                  OFFSET 2.54057 -0.884171 1.56538
                  CHANNELS 3 Zrotation Xrotation Yrotation
                  End Site
                  {
                    OFFSET 1.62519 -0.234802 1.16502
                  }
                }
              }
              JOINT lMid1
              {
                OFFSET 8.24714 1.18213 3.41376
                CHANNELS 3 Zrotation Xrotation Yrotation
                JOINT lMid2
                {
                  OFFSET 3.10165 -0.590103 1.0647
                  CHANNELS 3 Zrotation Xrotation Yrotation
                  End Site
                  {
                    OFFSET 2.48547 -0.328903 0.83742
                  }
                }
              }
              JOINT lRing1
              {
                OFFSET 8.82822 0.546677 1.51678
                CHANNELS 3 Zrotation Xrotation Yrotation
                JOINT lRing2
                {
                  OFFSET 2.60934 -0.819778 -0.0198488
                  CHANNELS 3 Zrotation Xrotation Yrotation
                  End Site
                  {
                    OFFSET 2.33842 -0.294052 0.168128
                  }
                }
              }
              JOINT lPinky1
              {
                OFFSET 8.27202 -0.0477905 -0.4584
                CHANNELS 3 Zrotation Xrotation Yrotation
                JOINT lPinky2
                {
                  OFFSET 1.82734 -0.647385 -0.700984
                  CHANNELS 3 Zrotation Xrotation Yrotation
                  End Site
                  {
                    OFFSET 1.69225 -0.51767 -0.607171
                  }
                }
              }
            }
          }
        }
      }
    }
  }
  JOINT rButtock
  {
    OFFSET -8.77824 4.35084 1.2192
    CHANNELS 3 Zrotation Xrotation Yrotation
    JOINT rThigh
    {
      OFFSET 0 -1.70687 -2.19456
      CHANNELS 3 Zrotation Xrotation Yrotation
      JOINT rShin
      {
        OFFSET 0 -36.8199 0.73152
        CHANNELS 3 Zrotation Xrotation Yrotation
        JOINT rFoot
        {
          OFFSET 0.73152 -45.1104 -5.12064
          CHANNELS 3 Zrotation Xrotation Yrotation
          End Site
          {
            OFFSET -1.1221 -3.69964 12.103
          }
        }
      }
    }
  }
  JOINT lButtock
  {
    OFFSET 8.77824 4.35084 1.2192
    CHANNELS 3 Zrotation Xrotation Yrotation
    JOINT lThigh
    {
      OFFSET 0 -1.70687 -2.19456
      CHANNELS 3 Zrotation Xrotation Yrotation
      JOINT lShin
      {
        OFFSET 0 -36.8199 0.73152
        CHANNELS 3 Zrotation Xrotation Yrotation
        JOINT lFoot
        {
          OFFSET -0.73152 -45.1104 -5.12064
          CHANNELS 3 Zrotation Xrotation Yrotation
          End Site
          {
            OFFSET 1.1221 -3.69964 12.103
          }
        }
      }
    }
  }
}
MOTION
Frames:	9
Frame Time:	0.00833333
0.0 0.0 0.0 0.0 0.0 0.0 0.0 0.0 0.0 0.0 0.0 0.0 0.0 0.0 0.0 0.0 0.0 0.0 0.0 0.0 0.0 0.0 0.0 0.0 0.0 0.0 0.0 0.0 0.0 0.0 0.0 0.0 0.0 0.0 0.0 0.0 0.0 0.0 0.0 0.0 0.0 0.0 0.0 0.0 0.0 0.0 0.0 0.0 0.0 0.0 0.0 0.0 0.0 0.0 0.0 0.0 0.0 0.0 0.0 0.0 0.0 0.0 0.0 0.0 0.0 0.0 0.0 0.0 0.0 0.0 0.0 0.0 0.0 0.0 0.0 0.0 0.0 0.0 0.0 0.0 0.0 0.0 0.0 0.0 0.0 0.0 0.0 0.0 0.0 0.0 0.0 0.0 0.0 0.0 0.0 0.0 0.0 0.0 0.0 0.0 0.0 0.0 0.0 0.0 0.0 0.0 0.0 0.0 0.0 0.0 0.0 0.0 0.0 0.0 0.0 0.0 0.0 0.0 0.0 0.0 0.0 0.0 0.0 0.0 0.0 0.0 0.0 0.0 0.0 0.0 0.0 0.0
-28.8897 82.125 -11.2613 -173.999926 4.317175 -171.316941 -0.782423 0.779173 -0.021959 -0.236343 -1.319556 1.649673 11.793141 11.220054 117.251331 -5.335568 13.413592 -116.777731 0.000732 -0.0 -0.000966 0.00033 -0.0 -0.001235 -159.049449 -40.294317 168.836268 27.461942 -75.645216 34.488838 -178.219906 -13.700545 -164.380037 -8.509625 18.834323 -0.035765 -12.30542 11.515071 3.094424 -147.210466 -52.268493 111.68563 -27.607991 30.766474 20.254802 7.639949 0.29019 -1.418743 -36.036977 51.72272 29.832844 5.344781 -5.835623 -0.603194 -145.118172 0.186039 -179.185594 12.063511 35.787106 -4.947723 -152.694797 39.285244 -147.933388 -156.570281 38.532071 -146.287914 59.833003 -86.721213 81.6338 0.258861 20.562428 0.295705 -173.00963 -59.335899 -121.586332 -172.324766 -15.47082 -143.711944 169.146248 -6.826282 -89.915641 61.58352 -4.693956 -16.824921 -11.979789 -21.347269 5.061842 -114.239813 -62.579374 -56.121047 36.037287 51.723237 -29.83127 85.812903 64.14442 -77.837705 72.758469 -72.142721 89.772471 55.537439 -82.195959 81.423624 87.57558 -50.205255 85.929083 168.217524 71.187189 145.472948 -0.0 -0.000533 -0.001063 -0.390799 -7.710154 -2.910429 -2.222324 21.710226 -150.097969 117.228242 -7.996846 -155.726701 -0.00356 0.001249 -0.00356 1.11347 -15.955095 180.0 -5.144241 -21.39281 -105.074602 8.050592 -46.058479 -83.849924
-29.2031 82.1649 -11.396 -174.111065 4.786891 -171.162123 -1.77858 -2.784279 147.411221 -0.102047 -2.075075 -144.014346 10.518347 12.58192 135.893461 -4.12378 12.572072 -134.343916 -0.003872 0.0 -3.5e-05 0.001797 0.0 0.000793 -6.043061 25.599112 7.234273 49.030655 9.914206 6.126959 -106.813252 57.559413 52.064588 161.033381 -50.541586 136.57132 -178.518388 -16.064572 89.476666 -93.463585 14.939236 36.214426 -50.384605 40.826843 40.025216 -169.705155 -19.019313 112.15015 -36.036339 51.722815 29.832964 -163.309237 -5.409798 143.320485 -72.131965 72.975636 89.989114 -159.805121 -3.511349 176.691473 -124.850135 -29.036895 -122.619804 -24.824627 -40.531139 -26.799061 159.220781 -48.028538 -170.414939 -161.4553 62.615838 175.213587 -13.283056 9.425809 -28.064813 12.695737 28.906903 -1.688055 -87.247782 -50.687914 -36.415871 160.458286 -28.743983 -127.326578 83.732625 42.329759 -69.989953 -83.486128 -64.778137 -36.822934 171.060996 -38.900094 -145.270665 11.725885 33.299467 -9.4703 145.122234 1.974661 179.750405 155.69287 1.327698 179.400254 158.295648 60.637916 150.818248 138.306757 -13.142489 134.087637 -179.977658 75.749665 -0.015287 178.769272 59.659967 -173.527936 -8.49704 -23.797919 -141.006068 27.245172 -43.441993 -49.773571 -179.997183 75.748936 -0.002906 -173.16617 53.406256 -5.415061 -6.089456 23.019994 -34.668766 -109.864576 -66.348907 -6.99479
-29.394199999999998 82.1918 -11.4749 -174.101893 5.019858 -170.938957 -0.271835 2.344539 -0.000197 0.126278 -3.930225 5.05746 -5.73759 11.283038 -113.799389 4.1907 15.597602 117.31271 -0.003105 0.0 -0.001677 0.00256 -0.0 -0.000839 -150.119593 21.700903 155.219141 -95.555317 31.227163 64.224479 39.07989 -54.836634 -53.507793 -171.879111 12.449406 140.791916 71.831076 -48.263685 25.791883 -43.58746 -84.466343 -85.046717 88.792568 -75.498529 40.05045 -60.193605 53.966721 49.615956 -169.090702 -33.24746 145.373502 -7.576152 26.101804 6.418649 -74.841084 72.960065 92.828333 -73.241005 -82.41101 -90.336615 -85.999646 -50.497855 -84.371384 41.243832 79.843068 -4.038731 -3.445719 -62.740813 13.27547 44.534639 -47.698748 75.502041 -10.189899 -25.752352 73.362192 -177.019323 -9.704881 -143.603449 -71.830903 -48.264544 -25.791079 11.788542 -70.107884 45.709574 50.386367 40.827442 -40.023545 21.42904 33.398189 -11.001578 -0.046834 -0.138721 0.026644 -80.537809 -78.004104 -52.074913 145.118985 0.227226 179.198247 155.540618 1.234347 179.380308 153.80645 43.67578 148.676753 -3.143042 3.636404 0.749945 179.993887 75.750724 0.004182 178.053162 54.181043 -180.0 -9.448075 -42.465098 -64.936307 -78.070956 -39.410773 -166.000984 -179.981319 75.748665 -0.012781 -170.187587 45.567584 0.0 -1.595926 43.087597 -164.246732 -117.767587 25.619782 178.590685
-29.6441 82.2186 -11.5699 -174.180979 5.397617 -170.711048 1.177009 -1.542068 -146.308387 1.080012 -0.21763 152.527122 -7.371785 4.928957 -80.682961 6.080767 14.874908 84.191877 0.000225 0.0 0.000591 0.000225 0.0 0.000591 0.132937 -0.807159 -0.178688 -90.818938 -7.15618 -160.351145 -172.380514 4.801377 -120.556443 -7.735603 -7.354757 -3.493569 1.589865 -1.576027 -0.222325 -1.739059 1.745028 0.388289 -173.602197 -52.692481 119.892372 -159.591627 -18.785679 118.7156 -0.220382 0.63831 0.122969 -114.294125 59.297662 104.696578 -0.016229 -1.323054 -0.416476 9.866762 7.252932 0.882785 -148.070803 21.783959 -144.328879 -156.356123 38.610431 -146.170861 -3.191763 -25.838904 5.074328 -61.827876 6.817876 24.624069 -173.947086 -40.93607 -85.618656 -179.079714 -6.498354 -143.447427 -4.473199 -4.455902 0.517262 -5.493158 -9.794587 7.711994 140.763084 1.379552 -116.227373 -95.203436 -70.258544 -43.911193 0.339142 0.981961 -0.189981 11.38665 33.420297 -9.072568 -0.005006 1.772406 -0.556241 -1.8662 48.411568 -10.225426 140.005928 -2.493831 137.117005 162.080573 55.908117 146.749049 -179.995406 75.750583 -0.003143 177.573377 52.569665 -0.0 -3.915053 40.183915 -26.932127 153.83226 -13.195025 -25.585698 -179.946639 75.749872 -0.043904 -167.12933 38.1721 -129.505838 -31.139035 -25.14661 80.098327 -100.22557 -65.663182 -1.750617
-29.8043 82.2248 -11.6635 -174.051081 5.731838 -170.614948 0.720796 2.821426 -20.518576 1.310669 -4.842413 27.215882 12.662518 2.594591 92.076468 -1.021559 3.841689 -88.441499 -0.000755 0.0 -0.0048 0.004037 0.0 0.001686 -8.482593 32.160958 9.929755 -85.390249 -13.779157 167.359066 178.815429 11.898106 -113.270886 -10.62848 -1.180983 -2.747954 -175.197884 -12.846237 89.807598 -91.124877 12.562021 34.654561 2.324638 -3.868082 -1.259878 -161.037149 -13.688993 110.175287 -11.032495 25.89152 7.686887 86.273502 -78.328453 57.444847 -69.297069 72.944984 87.01816 -158.735235 -27.890599 -179.971678 -142.06531 2.886623 -139.016648 -11.358964 -26.10687 -13.836846 143.333958 38.770986 -147.774441 -79.85194 -37.809751 -109.887687 -71.665772 -16.170604 -82.54532 56.452025 64.812906 -36.74201 169.571471 -7.254098 -89.929838 135.047877 9.744597 -66.904912 141.816571 -0.315311 -116.829021 -30.552979 -39.60005 7.218173 82.840905 61.111076 -74.532115 -7.475143 -12.274397 1.032191 0.000375 0.063748 -0.020231 155.851594 -8.256335 -172.844733 -12.634074 42.933998 -10.529889 -14.739139 44.094298 -8.302066 179.998158 75.749451 0.0019 177.199193 50.891215 -0.0 -8.184129 49.830853 -90.150044 137.649791 -55.850786 -124.57583 0.001684 0.000191 0.000842 12.521302 -36.573859 7.739486 -9.07889 39.339881 -38.765112 -146.01716 -69.117248 -43.091024
-30.0016 82.2337 -11.754299999999999 -174.010042 6.079213 -170.456984 -0.144045 2.872577 0.001224 0.322445 -5.143867 6.638682 11.084047 -1.579185 65.853102 1.772558 3.292523 -62.196918 -6.9e-05 0.0 -0.002905 -0.000923 -0.0 0.002752 -9.651662 34.836192 11.199174 -90.880303 -26.55652 164.248552 -14.092987 -27.323678 -110.701003 -177.136719 -14.589952 144.076831 -172.746474 -10.423525 89.928795 179.580788 -16.590985 95.014687 -153.455844 -21.067755 121.742603 32.078484 -39.327363 -7.891802 23.905088 -61.333583 1.402185 -18.202976 42.203941 14.519195 0.004568 1.771461 0.556003 10.185193 0.034548 -0.061271 -86.001144 -50.499592 -84.371179 -43.021787 -50.222569 -44.423578 142.973213 39.431476 -147.389807 39.373324 -5.032278 -49.734139 114.092508 -47.358962 66.769586 -3.321097 -28.234255 1.798952 152.349334 9.443214 -86.938157 117.793617 3.64917 -55.969627 138.494379 4.896677 -114.86487 162.038237 -12.166138 -118.884459 125.64529 49.841048 -115.275492 -3.335875 0.212345 -0.272574 0.014715 -1.322957 0.417144 -9.340491 12.72309 -1.661991 -12.990348 44.344044 -10.760524 147.706108 10.301547 143.018532 179.996649 75.748549 0.003458 177.030392 48.518079 -176.038878 2.12556 -54.16182 66.164571 126.586622 -43.34095 -141.132576 -0.0 0.0008 0.001731 13.191273 -38.548826 -159.38802 -15.060988 -51.321111 -54.238118 43.422784 54.62271 -152.332712
-30.189799999999998 82.24329999999999 -11.838 -173.962079 6.417349 -170.307111 1.652383 1.781501 -51.101127 2.187741 -3.836092 57.593466 -4.268425 11.236845 -121.236445 1.71257 16.011965 125.936002 0.000318 -0.0 -0.003182 -0.000532 -0.0 0.00248 -48.77901 -86.435698 -70.441738 -86.748604 -26.164298 -72.012677 -172.276902 -10.86613 -109.474473 -8.01679 -9.86562 -3.883228 -80.96545 38.735482 44.499019 35.460801 -32.969913 20.229659 -159.052955 -31.320277 122.653185 -179.248963 -47.490293 113.253727 -0.057221 0.167865 0.032966 -163.208457 -4.570085 143.332996 -67.609168 -72.073692 -84.374609 -79.215786 83.05985 97.06586 7.928194 24.811843 7.000525 -148.123405 12.686744 -143.822511 44.928084 -86.287171 66.535841 -8.642612 11.934437 46.268866 52.171244 -55.188388 149.028436 -168.550498 -38.885656 -141.023639 9.682142 9.193435 -2.242969 146.498209 -52.433661 -113.596524 19.171627 24.114164 -13.381035 67.157725 48.766953 -49.330351 -7.904771 -24.807506 3.013178 163.343917 -4.699854 -143.324356 0.02232 -1.725994 0.5428 -4.928072 -74.980809 15.380042 -12.251159 41.424981 -10.282545 -44.929027 83.090534 8.370391 -179.999426 75.748445 -0.0 176.779939 49.06254 -175.740789 -16.664058 -50.278855 -74.397729 84.48399 74.468785 -170.189337 -179.958646 75.750536 -0.034026 -167.709675 36.95976 -180.0 4.521763 -41.780827 123.460515 116.082918 41.780838 -39.61732
-30.376399999999997 82.24510000000001 -11.9154 -173.915991 6.752483 -170.166907 2.119009 0.095641 -90.441636 2.530284 -2.17306 96.834147 -4.803519 -1.443523 -41.675886 8.076421 10.736119 44.311668 0.000686 -0.0 -0.000399 0.000686 -0.0 -0.000399 -158.467816 -30.055679 166.919476 125.096246 0.291742 178.402057 -175.503499 16.462882 71.018837 -172.887222 -0.011941 142.268208 -171.705735 -9.388586 89.948731 -141.820967 8.580244 72.083679 -1.162557 1.860757 0.668659 -65.85557 48.386726 50.601864 -171.870339 -41.091374 145.158879 -7.590446 26.101262 6.403904 -145.123984 0.809523 -179.382626 -152.475995 -24.847798 -175.378713 -126.796029 -26.6175 -124.510434 -20.537795 -37.058467 -22.718157 142.973676 39.431799 -147.390504 -0.718877 -27.936667 -52.880453 82.151285 0.440225 5.753094 -52.959044 -73.710568 -37.020029 -83.253896 -50.257536 -33.61641 15.249957 -39.562459 29.350824 -73.421922 -73.57009 -26.566484 166.563136 -31.592295 -113.621009 148.319228 24.247683 -135.131528 -80.979317 -77.654473 -52.420256 -0.003964 1.770474 -0.556054 156.724682 -34.927276 -175.972635 131.402001 -19.916529 128.9616 -45.810032 80.000681 8.895436 -0.003045 0.000645 -0.003045 -3.634311 -24.633286 58.709417 44.315794 10.972217 7.481872 -142.483207 40.353378 65.368186 0.000461 -0.001152 -0.000593 12.726738 -36.471253 -128.896401 -33.779318 -28.079662 -169.749019 -103.3451 32.58975 14.949999
